<svg width="40" height="40" viewBox="0 0 40 40" fill="none" xmlns="http://www.w3.org/2000/svg">
<path fill-rule="evenodd" clip-rule="evenodd" d="M20.0467 34.036C22.0192 35.381 22.0192 38.6402 20.0467 39.9852C20.0179 40.0049 19.9821 40.0049 19.9533 39.9852C17.9808 38.6402 17.9809 35.381 19.9533 34.036C19.9821 34.0164 20.0179 34.0164 20.0467 34.036ZM16.7952 4.97684C16.7952 6.76213 18.23 8.20934 20 8.20934C21.77 8.20934 23.2048 6.76213 23.2048 4.97684C23.2048 3.19155 21.77 1.74433 20 1.74433C18.23 1.74442 16.7952 3.19164 16.7952 4.97684ZM24.4971 17.0399C24.4971 17.0585 24.5023 17.0746 24.5132 17.0897C26.289 19.5338 27.8646 22.1558 27.8646 24.1469C27.8646 28.3955 24.2386 31.6685 20 31.6685C15.7614 31.6685 12.1354 28.3955 12.1354 24.1469C12.1354 22.1558 13.711 19.5338 15.4868 17.0897C15.4978 17.0746 15.5029 17.0586 15.5029 17.0399V15.5502C15.5029 14.3303 15.1693 13.2825 14.465 12.2907L7.55241 2.5557C7.03926 1.833 7.20563 0.818243 7.92214 0.300653C8.63864 -0.216936 9.6447 -0.0491257 10.1579 0.673485L15.099 7.63194C16.2548 9.25959 17.9622 10.1445 19.9471 10.1445H20.053C22.0379 10.1445 23.7453 9.25959 24.9011 7.63194L29.8422 0.673485C30.3554 -0.0492165 31.3614 -0.217027 32.078 0.300653C32.7945 0.818243 32.9608 1.83309 32.4476 2.5557L25.535 12.2906C24.8307 13.2824 24.4971 14.3301 24.4971 15.5501V17.0399ZM18.5492 26.8463C17.4861 26.2802 16.7706 25.2077 16.7706 23.9761C16.7706 23.6572 16.8801 23.3114 17.0082 22.9979C17.139 22.6767 16.987 22.3092 16.6685 22.1773C16.3501 22.0453 15.9857 22.1986 15.8549 22.5199C15.6651 22.9845 15.5196 23.4963 15.5196 23.9762C15.5196 25.6754 16.4967 27.1782 17.9677 27.9603C18.2727 28.1223 18.6501 28.0043 18.8107 27.6966C18.9712 27.3889 18.8541 27.0082 18.5492 26.8463ZM24.3795 16.9064L24.4588 17.0148C24.4324 16.9787 24.4059 16.9426 24.3795 16.9064ZM15.3088 28.5609C17.8946 31.0221 22.1054 31.0221 24.6912 28.5609C25.8789 27.4303 26.6135 25.8696 26.6135 24.1469C26.6135 21.3039 22.4476 16.4713 20.0657 13.386C20.0493 13.3648 20.0265 13.3536 19.9999 13.3536C19.9734 13.3536 19.9505 13.3648 19.9341 13.386C17.5522 16.4713 13.3863 21.3038 13.3863 24.1469C13.3864 25.8696 14.1211 27.4303 15.3088 28.5609ZM32.1765 12.6818C32.174 12.7168 32.1919 12.7482 32.2233 12.7635C33.1888 13.2359 34.4346 13.2026 35.5185 12.5714C36.6024 11.9402 37.2539 10.8687 37.3311 9.78907C37.3337 9.75403 37.3158 9.72263 37.2844 9.70729C36.3188 9.23481 35.073 9.26821 33.9891 9.89943C32.9051 10.5306 32.2536 11.6021 32.1765 12.6818ZM34.0871 19.78C35.4206 17.7904 38.6519 17.7904 39.9854 19.78C40.0049 19.809 40.0049 19.8452 39.9854 19.8742C38.6519 21.8638 35.4206 21.8638 34.0871 19.8742C34.0676 19.8452 34.0676 19.809 34.0871 19.78ZM32.2233 26.8908C32.192 26.9061 32.174 26.9375 32.1765 26.9725C32.2536 28.0522 32.9051 29.1237 33.989 29.7549C35.0729 30.3861 36.3188 30.4195 37.2843 29.947C37.3156 29.9317 37.3336 29.9003 37.331 29.8652C37.2539 28.7856 36.6024 27.7141 35.5185 27.0829C34.4346 26.4517 33.1888 26.4183 32.2233 26.8908ZM27.0841 32.1089C28.1545 32.1866 29.2169 32.8438 29.8426 33.9371C30.4684 35.0303 30.5015 36.287 30.0331 37.2608C30.0179 37.2924 29.9868 37.3105 29.952 37.308C28.8816 37.2302 27.8192 36.573 27.1935 35.4798C26.5677 34.3865 26.5346 33.1299 27.003 32.156C27.0182 32.1244 27.0494 32.1063 27.0841 32.1089ZM7.77673 12.7635C7.80804 12.7482 7.82604 12.7168 7.82352 12.6818C7.74641 11.6021 7.09486 10.5306 6.01097 9.89943C4.92708 9.26821 3.68122 9.23481 2.71574 9.70729C2.68443 9.72263 2.66643 9.75403 2.66895 9.78907C2.74606 10.8687 3.39769 11.9402 4.4815 12.5714C5.56539 13.2025 6.81125 13.2359 7.77673 12.7635ZM5.91289 19.8742C4.5794 21.8638 1.34814 21.8638 0.0146442 19.8742C-0.00488139 19.8452 -0.00488139 19.809 0.0146442 19.78C1.34814 17.7904 4.5794 17.7904 5.91289 19.78C5.93242 19.809 5.93242 19.8452 5.91289 19.8742ZM7.82352 26.9725C7.82604 26.9375 7.80813 26.9061 7.77673 26.8908C6.81116 26.4183 5.5653 26.4517 4.4815 27.0829C3.3976 27.7141 2.74606 28.7857 2.66886 29.8652C2.66634 29.9003 2.68434 29.9317 2.71565 29.947C3.68113 30.4194 4.92699 30.3861 6.01088 29.7549C7.09486 29.1237 7.74641 28.0521 7.82352 26.9725ZM12.9969 32.156C13.4653 33.13 13.4322 34.3865 12.8064 35.4798C12.1806 36.573 11.1183 37.2302 10.0479 37.308C10.0132 37.3105 9.98204 37.2924 9.96683 37.2608C9.49849 36.287 9.53151 35.0303 10.1573 33.9371C10.7831 32.8438 11.8454 32.1866 12.9158 32.1089C12.9506 32.1063 12.9817 32.1245 12.9969 32.156Z" fill="#4C4E57"/>
</svg>
