<svg width="40" height="40" viewBox="0 0 40 40" fill="none" xmlns="http://www.w3.org/2000/svg">
<path d="M20.0001 35.2771C11.5626 35.2771 4.72262 28.4374 4.72262 19.9999C4.72262 11.5624 11.5626 4.72244 20.0001 4.72244C28.4379 4.72244 35.2776 11.5624 35.2776 19.9999C35.2776 20.6171 35.7786 21.1178 36.3954 21.1178C37.0123 21.1178 37.5129 20.6168 37.5129 19.9999C37.5129 10.3281 29.672 2.48682 20.0001 2.48682C10.3282 2.48682 2.4873 10.3281 2.4873 19.9999C2.4873 29.6718 10.3282 37.5131 20.0001 37.5131C20.6173 37.5131 21.1179 37.0121 21.1179 36.3953C21.1179 35.7784 20.6173 35.2771 20.0001 35.2771Z" fill="#4C4E57"/>
<path d="M18.8819 8.07613V20.3721H12.5469C11.9303 20.3721 11.4297 20.873 11.4297 21.4899C11.4297 22.1077 11.9306 22.6083 12.5469 22.6083H19.9997C20.6169 22.6083 21.1175 22.1074 21.1175 21.4899V8.07613C21.1175 7.45863 20.6166 6.95801 19.9997 6.95801C19.3828 6.95801 18.8819 7.45895 18.8819 8.07613Z" fill="#4C4E57"/>
<path d="M28.9434 20.3721C24.2099 20.3721 20.373 24.2089 20.373 28.9424C20.373 33.6761 24.2096 37.513 28.9434 37.513C33.6765 37.513 37.5134 33.6764 37.5134 28.9424C37.5134 24.2089 33.6768 20.3721 28.9434 20.3721ZM29.0471 32.7593C28.6749 33.2521 27.973 33.3496 27.4809 32.9774L24.0627 30.3933C23.5712 30.0218 23.4734 29.3202 23.8462 28.8274C24.218 28.3352 24.9199 28.2377 25.4115 28.6093L27.938 30.5193L31.4999 25.8071C31.8721 25.3146 32.5737 25.2171 33.0659 25.5893C33.558 25.9614 33.6559 26.663 33.2834 27.1555L29.0471 32.7593Z" fill="#4C4E57"/>
</svg>
