<svg width="40" height="40" viewBox="0 0 40 40" fill="none" xmlns="http://www.w3.org/2000/svg">
<g clip-path="url(#clip0_855_3892)">
<path d="M31.6417 12.6665C32.2264 12.6653 32.8006 12.5108 33.3069 12.2185C33.8133 11.9261 34.2343 11.5062 34.5278 11.0004C34.5865 10.899 34.6174 10.7838 34.6174 10.6665C34.6174 10.5493 34.5865 10.4341 34.5278 10.3326C34.2352 9.82604 33.8145 9.40539 33.3079 9.11293C32.8013 8.82047 32.2267 8.6665 31.6417 8.6665C31.0568 8.6665 30.4821 8.82047 29.9755 9.11293C29.4689 9.40539 29.0482 9.82604 28.7557 10.3326C28.6969 10.4341 28.666 10.5493 28.666 10.6665C28.666 10.7838 28.6969 10.899 28.7557 11.0004C29.0492 11.5062 29.4701 11.9261 29.9764 12.2184C30.4828 12.5108 31.057 12.6653 31.6417 12.6665ZM31.6417 9.99986C31.9228 10.0005 32.2006 10.0602 32.4572 10.175C32.7138 10.2898 32.9434 10.4573 33.1312 10.6665C32.9438 10.8762 32.7143 11.044 32.4576 11.1589C32.201 11.2738 31.9229 11.3332 31.6417 11.3332C31.3605 11.3332 31.0825 11.2738 30.8258 11.1589C30.5691 11.044 30.3396 10.8762 30.1523 10.6665C30.34 10.4573 30.5696 10.2899 30.8262 10.175C31.0827 10.0602 31.3606 10.0005 31.6417 9.99986Z" fill="#4C4E57"/>
<path d="M35.9717 34.2309C35.5339 33.8718 35.0168 33.4888 34.4306 33.0882C34.466 33.0671 34.5015 33.0465 34.5367 33.0247C37.4055 31.2517 39.3329 27.6248 39.3329 23.9998C39.3329 20.6134 37.9986 16.5553 35.0176 15.1225C33.7848 14.5301 31.8882 14.2225 29.3972 15.5876C29.2782 14.3971 28.9164 13.4018 28.5759 12.4674C27.9325 10.7021 27.4243 9.30775 28.5958 6.96467L27.4033 6.36834C25.975 9.225 26.6603 11.1054 27.3232 12.924C27.7086 13.9815 28.1013 15.0604 28.0982 16.4197C28.0648 16.4438 28.0326 16.4664 27.9994 16.4911C26.1695 15.1299 24.6072 14.6513 23.3327 14.6218V10.6665C23.3327 10.5223 23.286 10.3819 23.1994 10.2665L19.3329 5.111V1.33317C19.3329 1.15636 19.2627 0.98679 19.1376 0.861766C19.0126 0.736742 18.8431 0.666504 18.6662 0.666504H6.66624C6.48943 0.666504 6.31986 0.736742 6.19483 0.861766C6.06981 0.98679 5.99957 1.15636 5.99957 1.33317V5.111L2.13291 10.2665C2.04704 10.3823 2.00033 10.5224 1.99957 10.6665V25.0953C1.40245 25.4573 0.968071 26.0357 0.786989 26.7101C0.505405 27.6816 0.574739 29.0934 2.50432 30.3046C2.95243 30.5796 3.42366 30.8151 3.91266 31.0083C1.93657 32.0826 1.69999 33.3999 1.70707 33.9973C1.72166 35.2183 2.67549 36.2807 4.13707 36.7045C4.35431 36.7665 4.57925 36.7974 4.80516 36.7962C6.00641 36.7962 7.48941 35.9836 9.22591 34.3712C9.74799 33.8864 10.2259 33.3929 10.6252 32.9569C10.6957 33.5492 10.9067 34.1162 11.2405 34.6105C12.05 35.8093 13.5946 36.6684 16.4051 37.483C19.1063 38.2659 24.2112 39.008 28.5434 39.2481C29.5523 39.3039 30.5007 39.3314 31.3731 39.3314C32.4309 39.3404 33.4884 39.2861 34.5397 39.1688C36.587 38.9162 37.6626 38.3772 37.9247 37.4729C38.1867 36.5687 37.5662 35.5392 35.9717 34.2309ZM26.2667 18.3327C26.4423 18.6369 26.6949 18.8895 26.9991 19.0651C27.3033 19.2407 27.6483 19.3332 27.9996 19.3332C28.3508 19.3332 28.6959 19.2407 29 19.0651C29.3042 18.8895 29.5568 18.6369 29.7324 18.3327L30.8866 19.0003C30.5939 19.507 30.173 19.9276 29.6662 20.2201C29.1595 20.5126 28.5847 20.6665 27.9996 20.6665C27.4145 20.6665 26.8397 20.5126 26.3329 20.2201C25.8262 19.9276 25.4053 19.507 25.1126 19.0003L26.2667 18.3327ZM21.9996 10.8888V14.7609C21.6484 14.8449 21.3071 14.9661 20.9816 15.1225C18.0006 16.5553 16.6662 20.6134 16.6662 23.9998C16.6666 24.4384 16.6945 24.8766 16.7496 25.3117C16.2796 25.2549 15.8053 25.2418 15.3329 25.2724V10.8891L18.6662 6.44467L21.9996 10.8888ZM6.99957 5.99984H17.3329L14.3329 9.99984H3.99957L6.99957 5.99984ZM3.33291 11.3332H13.9996V15.3332H3.33291V11.3332ZM10.6969 30.8355C8.9629 33.0249 5.95157 35.842 4.50832 35.4238C3.62399 35.1676 3.04782 34.6013 3.04041 33.9814C3.03207 33.275 3.80707 32.2724 6.00824 31.5773C6.14466 31.5342 6.2636 31.4484 6.34746 31.3324C6.43133 31.2165 6.47568 31.0767 6.47396 30.9337C6.47225 30.7906 6.42455 30.6519 6.33792 30.538C6.25129 30.4241 6.13033 30.3412 5.99291 30.3013C2.97699 29.4271 1.69291 28.3738 2.06791 27.0813C2.29091 26.3118 2.96516 25.9283 4.11074 25.9283C4.88949 25.9283 5.88624 26.1057 7.10691 26.4594C7.24434 26.4993 7.39093 26.4938 7.52503 26.4439C7.65913 26.394 7.77362 26.3023 7.85156 26.1823C7.92951 26.0623 7.96678 25.9204 7.95787 25.7776C7.94895 25.6348 7.89433 25.4986 7.80207 25.3893C6.31357 23.6248 6.19457 22.3633 6.57949 21.7708C6.91724 21.2509 7.70691 21.0807 8.59124 21.3369C10.0345 21.7553 11.0725 25.7462 11.3671 28.5234L10.6969 30.8355ZM8.96241 20.0563C7.50074 19.6327 6.12641 20.0205 5.46141 21.0445C5.13641 21.5452 4.63132 22.7852 5.72674 24.7497C5.2101 24.6516 4.6859 24.5986 4.16007 24.5913H4.13507C3.86675 24.5904 3.5987 24.6087 3.33299 24.6461V16.6665H13.9996V25.5604C13.9477 25.5806 13.8961 25.6014 13.8455 25.6236C13.2992 25.8621 12.8178 26.2275 12.4412 26.6896C12.3367 26.1079 12.1972 25.4365 12.0155 24.7486C11.2922 22.0126 10.2652 20.4338 8.96241 20.0563ZM36.6446 37.1028C36.5514 37.4243 34.8767 38.264 28.6172 37.9175C27.5667 37.8592 26.471 37.7713 25.3773 37.6604L26.0283 35.4142L24.7477 35.043L24.0321 37.5123C21.1821 37.1741 18.479 36.6966 16.7763 36.2031C14.324 35.4923 12.9574 34.7713 12.3455 33.8651C11.7872 33.0383 11.7773 31.8975 12.3122 30.0507C12.847 28.2038 13.4658 27.2451 14.3797 26.845C14.7681 26.675 15.2372 26.5892 15.8091 26.5892C16.7126 26.5892 17.8724 26.8035 19.3742 27.2387C19.5748 27.297 19.7883 27.3637 20.011 27.4363L18.3443 33.1872L19.6249 33.5583L21.2703 27.881C23.8926 28.8659 27.3685 30.4882 30.2967 32.1219C31.0087 32.5192 31.6438 32.8917 32.211 33.2403L31.5221 35.6182L32.8027 35.9894L33.3824 33.9894C36.157 35.8421 36.7162 36.8548 36.6446 37.1028Z" fill="#4C4E57"/>
</g>
<defs>
<clipPath id="clip0_855_3892">
<rect width="40" height="40" fill="white"/>
</clipPath>
</defs>
</svg>
