<svg width="40" height="40" viewBox="0 0 40 40" fill="none" xmlns="http://www.w3.org/2000/svg">
<path d="M19.5148 9.05995C19.2108 8.93247 18.9916 8.66251 18.983 8.40409C18.9743 8.1595 18.7597 7.96972 18.5244 7.97665C18.2798 7.9853 18.0889 8.19065 18.0969 8.43524C18.1235 9.17679 18.7458 9.9223 19.7967 10.019L19.8038 10.3198C19.8096 10.5603 20.0069 10.7518 20.2468 10.7518H20.2578C20.5024 10.7455 20.6956 10.5424 20.6898 10.2979L20.6811 9.92684C20.7912 9.89353 20.9031 9.86425 21.0059 9.81446C21.5528 9.54854 21.9681 9.05419 22.1175 8.49177C22.4473 7.25371 21.4469 6.33366 20.166 6.32406C18.4564 6.31126 18.8448 4.46136 20.2327 4.38407H20.2393C20.2431 4.384 20.2461 4.38187 20.2498 4.38169C20.9157 4.35253 21.3257 4.77115 21.3376 5.1282C21.3463 5.37278 21.5661 5.56775 21.7962 5.55564C22.0408 5.54699 22.2323 5.34163 22.2237 5.09705C22.1979 4.37986 21.6125 3.67121 20.663 3.52382L20.6558 3.2177C20.65 2.97716 20.4527 2.78564 20.2128 2.78564C20.2093 2.78564 20.2059 2.78564 20.2018 2.78564C19.9572 2.79199 19.764 2.99504 19.7698 3.23962L19.7772 3.5567C18.9642 3.74743 18.3847 4.35685 18.2031 5.04052C17.9122 6.13249 18.662 7.00409 19.7634 7.17657C20.0274 7.21919 20.2189 7.19939 20.4164 7.23079C20.9891 7.32082 21.4161 7.68289 21.2615 8.26449C21.1773 8.58118 20.189 9.34117 19.5148 9.05995Z" fill="#4C4E57"/>
<path d="M23.4718 8.03806C23.5313 8.03806 23.8901 8.03692 23.8306 8.03691C24.0758 8.03633 24.2731 7.83732 24.2725 7.59274C24.2719 7.34816 24.0735 7.15088 23.8295 7.15088C23.77 7.15088 23.4112 7.15202 23.4707 7.15203C23.2255 7.15261 23.0282 7.35162 23.0288 7.5962C23.0294 7.84078 23.2278 8.03806 23.4718 8.03806Z" fill="#4C4E57"/>
<path d="M16.6276 8.05662C16.6871 8.05662 17.0459 8.05548 16.9864 8.05546C17.2315 8.05489 17.4288 7.85588 17.4282 7.6113C17.4277 7.36671 17.2292 7.16943 16.9852 7.16943C16.9258 7.16943 16.567 7.17057 16.6264 7.17059C16.3813 7.17116 16.184 7.37018 16.1846 7.61476C16.1851 7.85934 16.3836 8.05662 16.6276 8.05662Z" fill="#4C4E57"/>
<path d="M32.1536 16.7438C32.2985 15.8056 32.35 14.8554 32.2806 13.8991C32.2356 13.2785 32.0977 12.3953 31.4228 11.9004C30.3822 11.138 28.9345 11.8079 27.8124 12.4541C27.6519 12.3524 27.4987 12.2417 27.3336 12.1461C26.813 11.8449 26.3228 11.5931 25.8471 11.3817C27.1171 9.55408 27.4411 7.26967 26.6991 5.23439C25.9176 3.08939 24.121 0.990886 21.9494 0.303549C20.6578 -0.13139 19.2474 -0.0967791 18.0961 0.393537L17.9542 0.44776C13.6744 2.1492 11.8664 7.36622 14.7728 11.2181C14.0176 11.5366 13.2445 11.9479 12.4642 12.4456C11.3482 11.8036 9.89908 11.1518 8.86716 11.9004C8.19457 12.4011 8.05555 13.2808 8.00882 13.9003C7.94703 14.7513 7.97728 15.6184 8.09178 16.48C5.82886 19.8009 5.31643 23.2536 6.35386 26.8798C6.92209 28.8926 7.96657 30.8146 9.37515 32.4532C9.58567 34.5492 9.74864 35.9735 9.94298 37.9021C10.0093 38.6012 10.559 39.1631 11.2507 39.2387C12.728 39.3978 14.2264 39.4513 15.7252 39.3979C16.5103 39.3644 17.1316 38.7166 17.1397 37.9246C17.1429 37.6679 17.1459 37.4117 17.1481 37.1606C19.047 37.5783 20.6349 37.5523 22.1751 37.3345L22.1876 38.5055C22.1957 39.2998 22.8169 39.9476 23.6049 39.9805C25.0817 40.0311 26.5599 39.9839 28.0829 39.8207C28.7567 39.7468 29.3058 39.1948 29.3889 38.5072C29.6001 36.7275 29.8576 35.4929 30.0544 33.5425C34.2156 29.4703 35.7294 22.3468 32.1536 16.7438ZM14.3922 8.39087C13.7069 5.4859 15.3786 2.42575 18.276 1.2738C18.3813 1.25102 19.7508 0.498068 21.6736 1.14574C23.5762 1.75111 25.1728 3.63171 25.8661 5.53781C26.8897 8.34357 25.4801 11.6252 22.7911 12.8354C22.4209 12.7792 21.466 12.5459 19.9616 12.5459C19.2738 12.5459 18.6032 12.5995 17.9639 12.7078C16.1683 11.8595 14.7709 10.1778 14.3922 8.39087ZM29.3226 33.0243C25.8878 36.3019 20.6559 37.3471 16.5603 36.1084C12.2558 34.8518 8.51293 31.2676 7.20586 26.6375C6.27103 23.3708 6.73117 20.4976 8.32436 17.7588C8.34049 17.826 8.55046 18.5793 8.55221 18.5848C8.66748 18.9486 9.12145 18.9668 9.31422 18.7423C9.80842 18.167 10.3581 17.6213 10.9051 17.1519C13.233 15.122 14.5691 15.1666 14.6114 14.3583C14.6307 13.9842 14.3018 13.7588 14.0997 13.5882C13.8195 13.3513 13.3572 13.0092 13.2967 12.9652C14.0005 12.5407 14.6938 12.1928 15.3676 11.9263C15.7247 12.2907 16.2875 12.7536 16.8009 13.0743C16.5539 13.1562 16.3069 13.2386 16.0748 13.3408C15.851 13.4394 15.7495 13.7013 15.8481 13.9251C15.9463 14.147 16.2056 14.2506 16.4324 14.1518C17.3518 13.7463 18.2852 13.6037 18.2261 13.6144C20.4196 13.2187 22.5398 13.7376 22.4807 13.7305C22.4824 13.7309 22.4836 13.7321 22.4853 13.7324C23.5818 13.9517 23.9969 14.1893 24.191 14.1893C24.6887 14.1893 24.8053 13.4908 24.3369 13.3281C24.206 13.2825 24.0783 13.2475 23.9487 13.2065C24.0695 13.1303 24.1904 13.0544 24.3058 12.9703C24.5128 12.8193 24.9908 12.4198 25.2824 12.1017C25.9054 12.3646 26.4086 12.6343 26.9883 12.9768C26.4726 13.3401 26.1971 13.5908 26.1003 13.6696C25.8961 13.8391 25.6648 14.0307 25.681 14.356C25.6971 14.6888 25.9826 14.8821 26.0905 14.9553C27.0177 15.5831 27.6481 15.638 29.3918 17.1502C30.9777 18.5222 30.9056 18.8969 31.3167 18.8969C31.5106 18.8969 31.6817 18.7712 31.7395 18.586C31.7963 18.404 31.8352 18.2188 31.8836 18.0353C34.5947 23.1023 33.1357 29.3942 29.3226 33.0243Z" fill="#4C4E57"/>
<path d="M21.3556 24.5813C20.019 24.2277 18.4633 24.2514 17.3927 24.6407C14.874 25.5552 14.2904 28.556 16.4368 30.0544C18.5696 31.5436 23.084 31.2804 23.9721 28.5754C24.6029 26.6535 23.2993 25.0945 21.3556 24.5813ZM23.1299 28.2985C22.4665 30.3208 18.6603 30.5274 16.9445 29.3276C16.3382 28.9042 16.0209 28.3348 16.0042 27.6345C15.9788 26.628 16.836 25.7858 17.6949 25.4737C18.7021 25.1074 20.0882 25.1628 21.1295 25.4385C22.5509 25.8131 23.6031 26.8627 23.1299 28.2985Z" fill="#4C4E57"/>
<path d="M24.7442 19.0259C23.8916 19.0259 23.1982 19.7192 23.1982 20.5718C23.1982 21.4238 23.8916 22.1172 24.7442 22.1172C25.5962 22.1172 26.2895 21.4238 26.2895 20.5718C26.2895 19.7192 25.5962 19.0259 24.7442 19.0259Z" fill="#4C4E57"/>
<path d="M16.0527 20.7876C16.0527 19.9351 15.3594 19.2417 14.5074 19.2417C13.6548 19.2417 12.9614 19.9351 12.9614 20.7876C12.9614 21.6396 13.6548 22.333 14.5074 22.333C15.3594 22.333 16.0527 21.6396 16.0527 20.7876Z" fill="#4C4E57"/>
<path d="M18.4983 26.5845C18.4949 26.5845 18.4914 26.5845 18.4874 26.5845C18.2428 26.5908 18.0495 26.7939 18.0553 27.0384L18.0859 28.2873C18.0916 28.5279 18.2889 28.7194 18.5289 28.7194H18.5398C18.7844 28.713 18.9777 28.51 18.9719 28.2654L18.9413 27.0165C18.9356 26.776 18.7383 26.5845 18.4983 26.5845Z" fill="#4C4E57"/>
<path d="M20.7244 26.5889C20.7209 26.5889 20.7175 26.5889 20.7134 26.5889C20.4688 26.5946 20.2756 26.7983 20.2814 27.0428L20.3102 28.2363C20.316 28.4769 20.5133 28.6684 20.7532 28.6684H20.7642C21.0088 28.6626 21.202 28.459 21.1962 28.2144L21.1674 27.0209C21.1616 26.7804 20.9644 26.5889 20.7244 26.5889Z" fill="#4C4E57"/>
<path d="M26.8703 31.7388C26.759 31.8017 26.6465 31.8611 26.5323 31.9165C26.1103 32.1197 26.256 32.7581 26.7255 32.7581C26.8506 32.7581 26.9525 32.7108 27.3064 32.5106C27.5193 32.3901 27.5943 32.1195 27.4743 31.9067C27.3532 31.6938 27.082 31.6188 26.8703 31.7388Z" fill="#4C4E57"/>
<path d="M30.62 26.4251C30.3801 26.3905 30.1585 26.5734 30.132 26.8174C29.9751 28.2485 29.3083 29.6214 28.2532 30.6816C28.0802 30.8553 28.0813 31.1356 28.2544 31.3081C28.4272 31.4809 28.7086 31.4803 28.8808 31.3069C30.0772 30.1042 30.8346 28.5439 31.0123 26.9131C31.0394 26.6703 30.8634 26.4516 30.62 26.4251Z" fill="#4C4E57"/>
</svg>
