<svg width="40" height="40" viewBox="0 0 40 40" fill="none" xmlns="http://www.w3.org/2000/svg">
<path d="M3.125 8.125V35.625C3.12559 35.7228 3.14914 35.8192 3.19375 35.9062L4.44375 38.4062C4.49569 38.5093 4.57515 38.596 4.67333 38.6567C4.77152 38.7173 4.88458 38.7496 5 38.75H22.5C20.8611 37.8697 19.4803 36.5772 18.4937 35H6.7L23.125 18.575V26.9062H24.375V8.125C24.384 8.05864 24.384 7.99136 24.375 7.925L23.3375 4.8C23.7141 4.61056 24.0159 4.29974 24.1941 3.91772C24.3723 3.5357 24.4166 3.10476 24.3198 2.69447C24.223 2.28418 23.9908 1.91848 23.6606 1.6564C23.3304 1.39432 22.9216 1.25115 22.5 1.25H5C4.57653 1.25248 4.16638 1.39824 3.83631 1.66354C3.50624 1.92884 3.2757 2.29806 3.18223 2.71109C3.08875 3.12412 3.13785 3.55663 3.32152 3.9382C3.50519 4.31977 3.81262 4.62793 4.19375 4.8125L3.15625 7.9375C3.13786 7.99841 3.12735 8.06142 3.125 8.125ZM5.45 5H22.05L22.8813 7.5H4.61875L5.45 5ZM4.375 8.75H17.05L4.375 21.425V8.75Z" fill="#4C4E57"/>
<path d="M36.8754 28.6938C36.8613 28.5379 36.7893 28.3931 36.6735 28.2877C36.5578 28.1824 36.4068 28.1244 36.2504 28.125L18.7504 28.1625C18.5846 28.1625 18.4256 28.2284 18.3084 28.3456C18.1912 28.4628 18.1254 28.6217 18.1254 28.7875C18.1223 28.8312 18.1223 28.8751 18.1254 28.9188V29.4125C18.1353 31.8924 19.1274 34.2674 20.8845 36.0174C22.6415 37.7675 25.0204 38.75 27.5004 38.75C29.9868 38.75 32.3713 37.7623 34.1295 36.0041C35.8876 34.246 36.8754 31.8614 36.8754 29.375C36.8882 29.1481 36.8882 28.9207 36.8754 28.6938ZM21.2504 29.4063H25.6254C25.6161 29.5081 25.6161 29.6106 25.6254 29.7125L22.3691 32.9813C21.6373 31.9331 21.2466 30.6846 21.2504 29.4063ZM23.2254 33.9188L26.3129 30.7938C26.4799 30.9374 26.673 31.0477 26.8816 31.1188V35.625C25.5061 35.4822 24.2184 34.8813 23.2254 33.9188ZM28.1254 35.625V31.1438C28.3309 31.0702 28.5215 30.9601 28.6879 30.8188L31.8129 33.9125C30.8089 34.8784 29.511 35.4811 28.1254 35.625ZM32.6004 32.9938L29.3754 29.7063C29.3853 29.5961 29.3853 29.4852 29.3754 29.375H33.7504C33.7512 30.6597 33.3538 31.913 32.6129 32.9625L32.6004 32.9938Z" fill="#4C4E57"/>
</svg>
