<svg version="1.0" preserveAspectRatio="xMidYMid meet" height="35" viewBox="0 0 24 26.249999" zoomAndPan="magnify" width="32" xmlns:xlink="http://www.w3.org/1999/xlink" xmlns="http://www.w3.org/2000/svg"><defs><g></g><clipPath id="650364e9f5"><path clip-rule="nonzero" d="M 3 3 L 22 3 L 22 21.886719 L 3 21.886719 Z M 3 3"></path></clipPath><clipPath id="3c6280b5c2"><path clip-rule="nonzero" d="M 21 12 L 23.664062 12 L 23.664062 21.886719 L 21 21.886719 Z M 21 12"></path></clipPath><clipPath id="fa13926928"><path clip-rule="nonzero" d="M 20 0 L 23.664062 0 L 23.664062 13 L 20 13 Z M 20 0"></path></clipPath><clipPath id="d8d8f5bb6c"><path clip-rule="nonzero" d="M 22 12 L 23.664062 12 L 23.664062 13 L 22 13 Z M 22 12"></path></clipPath><clipPath id="669d7f94d0"><path clip-rule="nonzero" d="M 1 8 L 4 8 L 4 21.886719 L 1 21.886719 Z M 1 8"></path></clipPath><clipPath id="7f6bd36949"><path clip-rule="nonzero" d="M 0.332031 0 L 3 0 L 3 9 L 0.332031 9 Z M 0.332031 0"></path></clipPath></defs><g fill-opacity="1" fill="#000000"><g transform="translate(7.500021, 17.443172)"><g><path d="M 0.703125 -0.203125 L 1.53125 -0.421875 L 1.53125 -9.359375 L 0.703125 -9.5625 L 0.703125 -9.78125 L 4.40625 -9.78125 C 5.988281 -9.78125 7.128906 -9.539062 7.828125 -9.0625 C 8.523438 -8.582031 8.875 -7.910156 8.875 -7.046875 C 8.875 -6.472656 8.71875 -6.003906 8.40625 -5.640625 C 8.101562 -5.285156 7.707031 -5.019531 7.21875 -4.84375 C 6.707031 -4.644531 6.164062 -4.546875 5.59375 -4.546875 L 5.59375 -4.46875 C 5.9375 -4.445312 6.238281 -4.394531 6.5 -4.3125 C 7.144531 -4.113281 7.585938 -3.75 7.828125 -3.21875 L 9.078125 -0.421875 L 9.78125 -0.203125 L 9.78125 0 L 7.828125 0 C 7.054688 0 6.492188 -0.394531 6.140625 -1.1875 L 4.75 -4.328125 L 3.84375 -4.328125 L 3.84375 -0.421875 L 4.8125 -0.203125 L 4.8125 0 L 0.703125 0 Z M 4.40625 -4.671875 C 5.050781 -4.671875 5.5625 -4.875 5.9375 -5.28125 C 6.3125 -5.695312 6.5 -6.285156 6.5 -7.046875 C 6.5 -7.816406 6.3125 -8.40625 5.9375 -8.8125 C 5.5625 -9.21875 5.050781 -9.421875 4.40625 -9.421875 L 3.84375 -9.421875 L 3.84375 -4.671875 Z M 4.40625 -4.671875"></path></g></g></g><g clip-path="url(#650364e9f5)"><path fill-rule="nonzero" fill-opacity="1" d="M 12.722656 3.488281 C 12.722656 3.488281 12.722656 3.488281 12.71875 3.488281 C 10.195312 3.488281 7.90625 4.515625 6.25 6.171875 C 4.761719 7.65625 3.785156 9.65625 3.601562 11.878906 C 3.664062 12.015625 3.699219 12.167969 3.699219 12.328125 L 3.699219 14.191406 C 4.027344 16.097656 4.941406 17.800781 6.25 19.113281 C 7.90625 20.765625 10.195312 21.792969 12.71875 21.792969 C 15.246094 21.792969 17.535156 20.765625 19.191406 19.113281 C 20.46875 17.835938 21.367188 16.183594 21.714844 14.335938 L 21.714844 13.15625 C 21.714844 13.007812 21.746094 12.867188 21.804688 12.738281 C 21.820312 12.707031 21.839844 12.671875 21.855469 12.640625 L 21.136719 12.640625 C 21.136719 14.964844 20.195312 17.070312 18.671875 18.59375 C 17.148438 20.117188 15.046875 21.058594 12.71875 21.058594 C 10.394531 21.058594 8.292969 20.117188 6.769531 18.59375 C 5.246094 17.070312 4.300781 14.964844 4.300781 12.640625 C 4.300781 10.316406 5.246094 8.214844 6.769531 6.6875 C 8.292969 5.164062 10.394531 4.222656 12.71875 4.222656 C 15.046875 4.222656 17.148438 5.164062 18.671875 6.6875 C 20.195312 8.214844 21.136719 10.316406 21.136719 12.640625 L 21.855469 12.640625 C 21.863281 12.632812 21.867188 12.625 21.871094 12.617188 C 21.863281 10.101562 20.839844 7.820312 19.191406 6.171875 C 17.535156 4.515625 15.246094 3.488281 12.722656 3.488281" fill="#000000"></path></g><path fill-rule="nonzero" fill-opacity="1" d="M 13.0625 5.203125 C 10.894531 5.203125 8.929688 6.082031 7.507812 7.503906 C 6.085938 8.925781 5.207031 10.890625 5.207031 13.058594 C 5.207031 13.261719 5.371094 13.425781 5.574219 13.425781 C 5.777344 13.425781 5.941406 13.261719 5.941406 13.058594 C 5.941406 11.089844 6.738281 9.3125 8.027344 8.023438 C 9.316406 6.734375 11.09375 5.9375 13.0625 5.9375 C 13.265625 5.9375 13.429688 5.773438 13.429688 5.570312 C 13.429688 5.367188 13.265625 5.203125 13.0625 5.203125" fill="#000000"></path><path fill-rule="nonzero" fill-opacity="1" d="M 19.867188 11.855469 C 19.664062 11.855469 19.5 12.019531 19.5 12.222656 C 19.5 14.191406 18.703125 15.96875 17.414062 17.257812 C 16.125 18.546875 14.347656 19.34375 12.378906 19.34375 C 12.175781 19.34375 12.011719 19.507812 12.011719 19.710938 C 12.011719 19.914062 12.175781 20.078125 12.378906 20.078125 C 14.546875 20.078125 16.511719 19.199219 17.933594 17.777344 C 19.351562 16.355469 20.234375 14.390625 20.234375 12.222656 C 20.234375 12.019531 20.070312 11.855469 19.867188 11.855469" fill="#000000"></path><g clip-path="url(#3c6280b5c2)"><path fill-rule="nonzero" fill-opacity="1" d="M 23.410156 12.28125 L 23.410156 12.464844 C 23.410156 12.667969 23.246094 12.832031 23.046875 12.832031 C 22.945312 12.832031 22.855469 12.792969 22.792969 12.730469 C 22.726562 12.792969 22.636719 12.832031 22.539062 12.832031 C 22.335938 12.832031 22.171875 12.667969 22.171875 12.464844 L 22.171875 12.308594 C 22.125 12.339844 22.085938 12.371094 22.046875 12.40625 C 21.980469 12.46875 21.921875 12.539062 21.871094 12.617188 C 21.871094 12.625 21.871094 12.632812 21.871094 12.640625 C 21.871094 13.21875 21.816406 13.785156 21.714844 14.335938 L 21.714844 20.835938 C 21.714844 20.980469 21.746094 21.125 21.804688 21.25 C 21.980469 21.632812 22.371094 21.878906 22.8125 21.878906 C 23.105469 21.878906 23.378906 21.769531 23.578125 21.582031 C 23.679688 21.488281 23.761719 21.378906 23.820312 21.25 C 23.878906 21.125 23.910156 20.980469 23.910156 20.835938 L 23.175781 20.835938 C 23.175781 20.875 23.167969 20.910156 23.152344 20.945312 C 23.105469 21.050781 22.976562 21.144531 22.8125 21.144531 C 22.703125 21.144531 22.609375 21.105469 22.542969 21.042969 C 22.511719 21.015625 22.488281 20.980469 22.472656 20.945312 C 22.457031 20.910156 22.449219 20.875 22.449219 20.835938 L 22.449219 13.15625 C 22.449219 13.117188 22.457031 13.078125 22.472656 13.042969 C 22.519531 12.9375 22.648438 12.84375 22.8125 12.84375 C 22.921875 12.84375 23.015625 12.886719 23.082031 12.945312 C 23.113281 12.976562 23.136719 13.007812 23.152344 13.042969 C 23.167969 13.078125 23.175781 13.117188 23.175781 13.15625 L 23.175781 20.835938 L 23.910156 20.835938 L 23.910156 13.15625 C 23.910156 13.007812 23.878906 12.867188 23.820312 12.738281 C 23.730469 12.546875 23.589844 12.390625 23.410156 12.28125" fill="#000000"></path></g><path fill-rule="nonzero" fill-opacity="1" d="M 21.871094 12.640625 L 21.855469 12.640625 C 21.839844 12.671875 21.820312 12.707031 21.804688 12.738281 C 21.746094 12.867188 21.714844 13.007812 21.714844 13.15625 L 21.714844 14.335938 C 21.816406 13.785156 21.871094 13.21875 21.871094 12.640625 M 21.871094 12.617188 C 21.867188 12.625 21.863281 12.632812 21.855469 12.640625 L 21.871094 12.640625 C 21.871094 12.632812 21.871094 12.625 21.871094 12.617188" fill="#000000"></path><g clip-path="url(#fa13926928)"><path fill-rule="nonzero" fill-opacity="1" d="M 22.679688 10.234375 C 21.863281 8.730469 21.578125 7.304688 21.574219 6.023438 C 21.574219 4.441406 22.015625 3.074219 22.460938 2.109375 C 22.535156 1.949219 22.605469 1.796875 22.679688 1.660156 L 22.679688 10.234375 M 23.046875 0 C 22.933594 0 22.828125 0.0507812 22.757812 0.140625 C 22.742188 0.15625 22.269531 0.765625 21.792969 1.800781 C 21.320312 2.839844 20.84375 4.300781 20.84375 6.023438 C 20.84375 7.484375 21.191406 9.128906 22.171875 10.824219 L 22.171875 12.308594 C 22.351562 12.183594 22.574219 12.113281 22.8125 12.113281 C 23.03125 12.113281 23.238281 12.171875 23.410156 12.28125 L 23.410156 0.363281 C 23.410156 0.210938 23.3125 0.0703125 23.164062 0.0195312 C 23.125 0.00390625 23.085938 0 23.046875 0" fill="#000000"></path></g><g clip-path="url(#d8d8f5bb6c)"><path fill-rule="nonzero" fill-opacity="1" d="M 22.8125 12.113281 C 22.574219 12.113281 22.351562 12.183594 22.171875 12.308594 L 22.171875 12.464844 C 22.171875 12.667969 22.335938 12.832031 22.539062 12.832031 C 22.636719 12.832031 22.726562 12.792969 22.789062 12.730469 C 22.855469 12.792969 22.945312 12.832031 23.042969 12.832031 C 23.246094 12.832031 23.410156 12.667969 23.410156 12.464844 L 23.410156 12.28125 C 23.238281 12.171875 23.03125 12.113281 22.8125 12.113281" fill="#000000"></path></g><g clip-path="url(#669d7f94d0)"><path fill-rule="nonzero" fill-opacity="1" d="M 2.53125 21.128906 C 2.402344 21.128906 2.289062 21.082031 2.210938 21.007812 C 2.175781 20.972656 2.144531 20.933594 2.125 20.890625 C 2.105469 20.847656 2.09375 20.800781 2.09375 20.753906 L 2.09375 12.328125 C 2.09375 12.246094 2.121094 12.179688 2.171875 12.113281 C 2.222656 12.050781 2.296875 12 2.386719 11.972656 C 2.441406 11.953125 2.492188 11.925781 2.53125 11.886719 C 2.570312 11.925781 2.621094 11.953125 2.675781 11.972656 C 2.765625 12 2.839844 12.050781 2.890625 12.113281 C 2.941406 12.179688 2.96875 12.246094 2.96875 12.328125 L 2.96875 20.753906 C 2.96875 20.800781 2.957031 20.847656 2.9375 20.890625 C 2.878906 21.019531 2.726562 21.128906 2.53125 21.128906 M 3.148438 8.332031 L 2.621094 8.332031 C 2.597656 8.339844 2.574219 8.339844 2.550781 8.339844 C 2.527344 8.339844 2.5 8.339844 2.480469 8.332031 L 1.914062 8.332031 L 1.914062 11.382812 C 1.792969 11.457031 1.683594 11.546875 1.597656 11.65625 C 1.453125 11.839844 1.363281 12.074219 1.363281 12.328125 L 1.363281 20.753906 C 1.363281 20.910156 1.398438 21.058594 1.457031 21.195312 C 1.644531 21.597656 2.058594 21.863281 2.53125 21.863281 C 2.84375 21.863281 3.132812 21.746094 3.347656 21.546875 C 3.453125 21.449219 3.542969 21.328125 3.605469 21.195312 C 3.664062 21.058594 3.699219 20.910156 3.699219 20.753906 L 3.699219 14.191406 C 3.613281 13.6875 3.570312 13.167969 3.570312 12.640625 C 3.570312 12.382812 3.582031 12.128906 3.601562 11.878906 C 3.5625 11.800781 3.519531 11.726562 3.464844 11.660156 C 3.378906 11.546875 3.269531 11.457031 3.148438 11.382812 L 3.148438 8.332031" fill="#000000"></path></g><path fill-rule="nonzero" fill-opacity="1" d="M 3.601562 11.878906 C 3.582031 12.128906 3.570312 12.382812 3.570312 12.640625 C 3.570312 13.167969 3.613281 13.6875 3.699219 14.191406 L 3.699219 12.328125 C 3.699219 12.167969 3.664062 12.015625 3.601562 11.878906" fill="#000000"></path><path fill-rule="nonzero" fill-opacity="1" d="M 4.605469 0.308594 C 4.40625 0.308594 4.242188 0.472656 4.242188 0.675781 L 4.242188 6.011719 C 4.242188 6.484375 4.109375 6.910156 3.921875 7.191406 C 3.828125 7.332031 3.722656 7.4375 3.617188 7.503906 C 3.511719 7.570312 3.414062 7.601562 3.308594 7.601562 L 2.914062 7.601562 L 2.914062 7.679688 C 3.050781 7.730469 3.148438 7.863281 3.148438 8.019531 L 3.148438 8.332031 L 3.308594 8.332031 C 3.308594 8.332031 3.308594 8.332031 3.3125 8.332031 C 3.566406 8.332031 3.804688 8.253906 4.011719 8.121094 C 4.320312 7.921875 4.554688 7.617188 4.71875 7.253906 C 4.882812 6.890625 4.972656 6.464844 4.972656 6.011719 L 4.972656 0.675781 C 4.972656 0.472656 4.808594 0.308594 4.605469 0.308594" fill="#000000"></path><path fill-rule="nonzero" fill-opacity="1" d="M 2.914062 7.679688 L 2.917969 7.972656 C 2.917969 8.152344 2.789062 8.300781 2.621094 8.332031 L 3.148438 8.332031 L 3.148438 8.019531 C 3.148438 7.863281 3.050781 7.730469 2.914062 7.679688" fill="#000000"></path><g clip-path="url(#7f6bd36949)"><path fill-rule="nonzero" fill-opacity="1" d="M 0.457031 0.308594 C 0.253906 0.308594 0.0898438 0.472656 0.0898438 0.675781 L 0.0898438 6.011719 C 0.0898438 6.617188 0.25 7.171875 0.53125 7.597656 C 0.671875 7.808594 0.84375 7.992188 1.050781 8.121094 C 1.257812 8.253906 1.496094 8.332031 1.75 8.332031 C 1.753906 8.332031 1.753906 8.332031 1.753906 8.332031 L 1.914062 8.332031 L 1.914062 8.019531 C 1.914062 7.851562 2.027344 7.710938 2.183594 7.667969 L 2.179688 7.601562 L 1.753906 7.601562 C 1.648438 7.601562 1.550781 7.570312 1.445312 7.503906 C 1.289062 7.40625 1.128906 7.214844 1.011719 6.953125 C 0.894531 6.695312 0.820312 6.367188 0.824219 6.011719 L 0.824219 0.675781 C 0.824219 0.472656 0.660156 0.308594 0.457031 0.308594" fill="#000000"></path></g><path fill-rule="nonzero" fill-opacity="1" d="M 2.183594 7.667969 C 2.027344 7.710938 1.914062 7.851562 1.914062 8.019531 L 1.914062 8.332031 L 2.480469 8.332031 C 2.3125 8.300781 2.183594 8.152344 2.183594 7.976562 L 2.183594 7.667969" fill="#000000"></path><path fill-rule="nonzero" fill-opacity="1" d="M 2.511719 0.3125 C 2.308594 0.316406 2.144531 0.480469 2.144531 0.683594 L 2.179688 7.601562 L 2.183594 7.667969 C 2.214844 7.660156 2.246094 7.652344 2.28125 7.652344 C 2.378906 7.652344 2.464844 7.691406 2.53125 7.753906 C 2.597656 7.691406 2.683594 7.652344 2.78125 7.652344 C 2.828125 7.652344 2.875 7.664062 2.914062 7.679688 L 2.914062 7.601562 L 2.878906 0.679688 C 2.878906 0.476562 2.714844 0.3125 2.511719 0.3125" fill="#000000"></path><path fill-rule="nonzero" fill-opacity="1" d="M 2.78125 7.652344 C 2.683594 7.652344 2.597656 7.691406 2.53125 7.753906 C 2.464844 7.691406 2.378906 7.652344 2.28125 7.652344 C 2.246094 7.652344 2.214844 7.660156 2.183594 7.667969 L 2.183594 7.976562 C 2.183594 8.152344 2.3125 8.300781 2.480469 8.332031 C 2.5 8.339844 2.527344 8.339844 2.550781 8.339844 C 2.574219 8.339844 2.597656 8.339844 2.621094 8.332031 C 2.789062 8.300781 2.917969 8.152344 2.917969 7.972656 L 2.914062 7.679688 C 2.875 7.664062 2.828125 7.652344 2.78125 7.652344" fill="#000000"></path></svg>